HIERARCHY
ROOT Hips
{
	OFFSET 0.000000 0.000000 0.000000
	CHANNELS 6 Xposition Yposition Zposition Zrotation Yrotation Xrotation 
	JOINT LHipJoint
	{
		OFFSET 0.000000 0.000000 0.000000
		CHANNELS 3 Zrotation Yrotation Xrotation
		JOINT LeftUpLeg
		{
			OFFSET 8.178360 -10.767780 5.035740
			CHANNELS 3 Zrotation Yrotation Xrotation
			JOINT LeftLeg
			{
				OFFSET 14.688660 -40.356780 0.000000
				CHANNELS 3 Zrotation Yrotation Xrotation
				JOINT LeftFoot
				{
					OFFSET 15.373200 -42.237540 0.000000
					CHANNELS 3 Zrotation Yrotation Xrotation
					JOINT LeftToeBase
					{
						OFFSET 0.945840 -2.598660 13.935300
						CHANNELS 3 Zrotation Yrotation Xrotation
						End Site
						{
							OFFSET 0.000000 0.000000 0.000000
						}
					}
				}
			}
		}
	}
	JOINT RHipJoint
	{
		OFFSET 0.000000 0.000000 0.000000
		CHANNELS 3 Zrotation Yrotation Xrotation
		JOINT RightUpLeg
		{
			OFFSET -7.833120 -10.767780 5.035740
			CHANNELS 3 Zrotation Yrotation Xrotation
			JOINT RightLeg
			{
				OFFSET -15.255180 -41.913300 0.000000
				CHANNELS 3 Zrotation Yrotation Xrotation
				JOINT RightFoot
				{
					OFFSET -15.409560 -42.337380 0.000000
					CHANNELS 3 Zrotation Yrotation Xrotation
					JOINT RightToeBase
					{
						OFFSET -0.988380 -2.715540 14.178900
						CHANNELS 3 Zrotation Yrotation Xrotation
						End Site
						{
							OFFSET 0.000000 0.000000 0.000000
						}
					}
				}
			}
		}
	}
	JOINT LowerBack
	{
		OFFSET 0.000000 0.000000 0.000000
		CHANNELS 3 Zrotation Yrotation Xrotation
		JOINT Spine
		{
			OFFSET 0.169620 12.213540 -1.160280
			CHANNELS 3 Zrotation Yrotation Xrotation
			JOINT Spine1
			{
				OFFSET 0.340320 12.293100 -0.256500
				CHANNELS 3 Zrotation Yrotation Xrotation
				JOINT Neck
				{
					OFFSET 0.000000 0.000000 0.000000
					CHANNELS 3 Zrotation Yrotation Xrotation
					JOINT Neck1
					{
						OFFSET -0.325020 10.477440 1.032120
						CHANNELS 3 Zrotation Yrotation Xrotation
						JOINT Head
						{
							OFFSET 0.624420 10.568160 -0.743820
							CHANNELS 3 Zrotation Yrotation Xrotation
							End Site
							{
								OFFSET 0.000000 0.000000 0.000000
							}
						}
					}
				}
				JOINT LeftShoulder
				{
					OFFSET 0.000000 0.000000 0.000000
					CHANNELS 3 Zrotation Yrotation Xrotation
					JOINT LeftArm
					{
						OFFSET 20.174460 7.205340 -1.867260
						CHANNELS 3 Zrotation Yrotation Xrotation
						JOINT LeftForeArm
						{
							OFFSET 29.898000 -0.000000 -0.000000
							CHANNELS 3 Zrotation Yrotation Xrotation
							JOINT LeftHand
							{
								OFFSET 20.901360 -0.000000 -0.000000
								CHANNELS 3 Zrotation Yrotation Xrotation
								JOINT LeftFingerBase
								{
									OFFSET 0.000000 0.000000 0.000000
									CHANNELS 3 Zrotation Yrotation Xrotation
									JOINT LeftHandIndex1
									{
										OFFSET 4.291560 -0.000000 -0.000000
										CHANNELS 3 Zrotation Yrotation Xrotation
										End Site
										{
											OFFSET 0.000000 0.000000 0.000000
										}
									}
								}
								JOINT LThumb
								{
									OFFSET 0.000000 0.000000 0.000000
									CHANNELS 3 Zrotation Yrotation Xrotation
									End Site
									{
										OFFSET 0.000000 0.000000 0.000000
									}
								}
							}
						}
					}
				}
				JOINT RightShoulder
				{
					OFFSET 0.000000 0.000000 0.000000
					CHANNELS 3 Zrotation Yrotation Xrotation
					JOINT RightArm
					{
						OFFSET -18.819600 8.244300 -2.427900
						CHANNELS 3 Zrotation Yrotation Xrotation
						JOINT RightForeArm
						{
							OFFSET -31.451400 -0.000000 -0.000000
							CHANNELS 3 Zrotation Yrotation Xrotation
							JOINT RightHand
							{
								OFFSET -20.665020 -0.000000 -0.000000
								CHANNELS 3 Zrotation Yrotation Xrotation
								JOINT RightFingerBase
								{
									OFFSET 0.000000 0.000000 0.000000
									CHANNELS 3 Zrotation Yrotation Xrotation
									JOINT RightHandIndex1
									{
										OFFSET -3.735180 -0.000000 -0.000000
										CHANNELS 3 Zrotation Yrotation Xrotation
										End Site
										{
											OFFSET 0.000000 0.000000 0.000000
										}
									}
								}
								JOINT RThumb
								{
									OFFSET 0.000000 0.000000 0.000000
									CHANNELS 3 Zrotation Yrotation Xrotation
									End Site
									{
										OFFSET 0.000000 0.000000 0.000000
									}
								}
							}
						}
					}
				}
			}
		}
	}
}
MOTION
Frames:	4
Frame Time:	0.0333333
39.749796 117.377742 -74.462628 -179.427604 2.937925 -175.333960 -11.964674 -7.747382 -0.361004 -12.814979 23.404597 -37.343555 2.830436 11.364626 26.785549 -8.007637 24.986934 25.336858 0.363800 3.874800 10.724600 8.862123 7.153434 -1.066884 6.502335 -7.880740 -28.851496 -9.404438 -18.000777 54.096694 2.305998 -9.651007 11.850015 -0.019900 0.909700 -2.500300 6.974560 0.297318 13.564534 1.163259 2.137124 -5.366924 -6.624693 0.729893 -14.097605 -8.771394 -12.376754 -12.187270 11.617073 -14.680891 -8.902403 3.381300 -7.166500 0.562800 6.511901 -8.663582 -2.802352 -3.427325 -8.866463 48.043307 119.468643 -58.678358 -95.643856 -2.719668 -1.176542 -10.885623 53.010284 -17.861831 -21.795200 -7.125000 0.000000 0.000000 17.686100 4.386600 -17.135600 -6.362392 9.956824 6.891938 -35.406803 8.287460 -44.205828 -36.056895 36.793902 -31.241479 1.316928 7.274090 -55.645511 -14.763171 10.988827 -3.062500 7.125000 0.000000 0.000000 3.776900 -21.653000 2.121300 
40.328580 119.551302 -72.501810 179.929052 1.567242 -172.746433 -13.487282 -8.317443 -0.781997 -11.519370 21.443675 -36.540548 1.201418 9.949268 21.884734 -7.471219 24.780746 26.693398 0.165600 2.621300 7.226200 10.866586 7.343996 -0.404643 5.327909 -5.613011 -26.326179 -5.673328 -15.368187 42.080309 4.810583 -15.204994 14.230738 -0.001200 0.225800 -0.620400 7.232447 0.061861 13.057969 1.471240 1.969075 -5.473574 -7.601832 0.630921 -14.729200 -10.242436 -11.750204 -13.005679 13.537637 -15.462251 -10.905552 4.171200 -8.430100 0.334400 6.484840 -8.351409 -2.995627 -2.911082 -6.380711 48.785429 121.069592 -58.365666 -97.006081 -2.222884 -1.159711 -10.626799 54.143084 -18.284093 -22.726100 -7.125000 0.000000 0.000000 17.946100 3.518300 -17.718300 -7.095306 10.127106 6.662867 -34.131942 3.532901 -52.426231 -25.221671 29.431552 -22.749305 0.098658 7.902675 -67.075680 -8.893699 6.046785 -0.889700 7.125000 0.000000 0.000000 7.875800 -26.783200 3.512900 
40.704786 120.887190 -70.386132 179.209819 0.348397 -170.006134 -14.446086 -9.098953 -1.383782 -10.393407 18.918420 -36.206034 -0.344281 8.838840 19.165811 -4.482393 19.431208 26.720885 0.014900 -0.787500 -2.164300 12.787316 7.404835 -0.088842 3.005827 -2.857589 -24.213683 -2.548777 -11.843415 29.436940 8.384111 -22.594837 17.625330 -0.003300 0.372300 -1.023000 8.091630 0.508796 12.679842 1.876556 1.669166 -5.533430 -8.796134 -0.024485 -15.072562 -12.206748 -12.220389 -13.655361 15.794826 -15.890122 -12.480048 4.473900 -8.810900 0.277100 6.383674 -7.996816 -3.234505 -1.806520 -3.863049 49.532405 122.187705 -58.431629 -98.171637 -1.558930 -1.217174 -10.941598 55.514131 -18.904622 -23.893000 -7.125000 0.000000 0.000000 18.228300 2.420700 -18.411500 -7.461649 10.430866 6.054631 -31.689763 -0.237033 -58.597973 -16.500818 21.961975 -15.507765 -0.869754 8.011921 -73.507480 -6.766910 2.329616 0.188000 7.125000 0.000000 0.000000 9.764300 -30.661000 3.464700 
40.981668 121.600500 -67.874688 178.675036 -0.911819 -167.512514 -14.912658 -9.848382 -2.151360 -9.564924 16.231306 -36.357221 -1.147345 8.448133 18.306475 -2.472643 15.476199 25.322218 0.591100 -4.922300 -13.687000 13.646541 7.589792 -0.411288 1.305518 -0.260220 -23.427120 -1.211882 -9.714948 22.875692 10.217938 -26.243690 19.431083 -0.000200 0.096500 -0.265000 9.256043 0.189141 13.041996 2.317419 1.412857 -5.549089 -9.719038 -0.237818 -15.395543 -14.600932 -12.663895 -13.924313 17.833278 -16.242643 -13.487526 5.006200 -9.149400 0.251200 6.096574 -7.678334 -3.615823 -0.305524 -1.850345 49.849827 121.854103 -59.404951 -98.583885 -0.843616 -1.338977 -10.467544 56.637195 -19.775231 -25.002200 -7.125000 0.000000 0.000000 18.308800 1.280500 -18.893500 -6.962014 10.727556 5.428124 -28.924791 -2.531849 -62.650076 -10.839903 15.956631 -10.294067 -1.592577 7.937205 -76.124208 -6.771019 -0.407279 0.954700 7.125000 0.000000 0.000000 10.230200 -33.764800 2.857500 
